<svg data-v-423bf9ae="" xmlns="http://www.w3.org/2000/svg" viewBox="0 0 268 90" class="iconLeft"><!----><!----><!----><g data-v-423bf9ae="" id="ef8a264e-b78a-4a38-9adc-c4ffb4a9fd15" fill="#7DE38D" transform="matrix(5.791505450303629,0,0,5.791505450303629,107.91505081928712,-5.907335925682659)"><path d="M0.50 8.43L1.93 9.35C2.37 8.62 2.94 8.15 3.86 8.15C4.82 8.15 5.32 8.67 5.32 9.32L5.32 9.49L2.53 9.80C1.25 9.94 0.36 10.70 0.36 11.80C0.36 13.13 1.40 13.97 2.97 13.97C4.47 13.97 4.98 13.24 5.15 12.94L5.35 12.94L5.35 13.78L7.08 13.78L7.08 9.34C7.08 7.71 5.85 6.64 3.96 6.64C2.27 6.64 1.33 7.39 0.50 8.43ZM2.21 11.70C2.21 11.30 2.53 11.06 3.19 10.98L5.32 10.72L5.32 10.84C5.32 11.79 4.63 12.52 3.40 12.52C2.62 12.52 2.21 12.18 2.21 11.70ZM10.42 6.83L8.68 6.83L8.68 13.78L10.44 13.78L10.44 9.88C10.44 8.90 11.09 8.43 11.98 8.43L13.02 8.43L13.02 6.80L12.32 6.80C11.44 6.80 10.85 7.07 10.58 7.84L10.42 7.84ZM15.82 3.98L14.06 3.98L14.06 13.78L15.82 13.78ZM17.14 4.82C17.14 5.53 17.68 6.02 18.38 6.02C19.08 6.02 19.63 5.53 19.63 4.82C19.63 4.10 19.08 3.61 18.38 3.61C17.68 3.61 17.14 4.10 17.14 4.82ZM19.26 6.83L17.50 6.83L17.50 13.78L19.26 13.78ZM20.52 10.30C20.52 12.46 22.12 13.97 24.14 13.97C26.08 13.97 27.30 12.89 27.64 11.31L25.90 10.88C25.72 11.76 25.23 12.35 24.16 12.35C23.03 12.35 22.29 11.54 22.29 10.30C22.29 9.07 23.10 8.26 24.16 8.26C25.23 8.26 25.77 8.93 25.90 9.74L27.64 9.30C27.27 7.71 26.07 6.64 24.14 6.64C22.12 6.64 20.52 8.15 20.52 10.30Z"></path></g><!----><g data-v-423bf9ae="" id="fe548a59-fffd-4419-8ee0-6384816f0b51" transform="matrix(2.8125,0,0,2.8125,0,0)" stroke="none" fill="#7DE38D"><path d="M9.571 20.464l8.064 4.47 8.065-4.47v-8.939l-8.065-4.469-8.064 4.469z"></path><path d="M32 0H0v32h32l-5.054-5.172H5.054V5.172h21.892z"></path></g><!----></svg>